# xmcd CD database file
#
# Track frame offsets:
#	187
#	12374
#	24394
#	38087
#	51267
#	69512
#	90119
#	102387
#
# Disc length: 1520 seconds
#
# Revision: 0
# Processed by: cddbd v1.5.1PL0 Copyright (c) Steve Scherf et al.
# Submitted via: CDex 1.50
#
DISCID=5805ee08
DTITLE=George Wallington - Jazz Time Paris
DYEAR=1953
DGENRE=Jazz
TTITLE0=Fairyland
TTITLE1=Woodin' you
TTITLE2=Just one of those things
TTITLE3=Honeysuckle Rose
TTITLE4=Star Eyes
TTITLE5=Ny
TTITLE6=A day in Paris
TTITLE7=These foolish things
EXTD=YEAR: 1953
EXTT0=
EXTT1=
EXTT2=
EXTT3=
EXTT4=
EXTT5=
EXTT6=
EXTT7=
PLAYORDER=
